<svg width="34" height="37" viewBox="0 0 34 37" fill="none" xmlns="http://www.w3.org/2000/svg">
<path d="M7.80254 12.2255C7.55087 12.4772 7.21603 12.6284 6.86084 12.6507C6.50565 12.673 6.15451 12.565 5.87331 12.3469L5.73592 12.2255L1.35131 7.84093C1.09966 7.58926 0.948495 7.25442 0.926161 6.89923C0.903827 6.54404 1.01186 6.1929 1.23 5.9117L1.35131 5.77431L5.73592 1.3897C5.98759 1.13806 6.32243 0.986886 6.67762 0.964552C7.03281 0.942218 7.38395 1.05025 7.66515 1.26839L7.80254 1.3897L11.7604 5.34608H25.7035L26.025 5.35339C27.9219 5.4379 29.713 6.25091 31.0254 7.62308C32.3378 8.99524 33.0703 10.8208 33.0703 12.7195C33.0703 14.6183 32.3378 16.4438 31.0254 17.816C29.713 19.1882 27.9219 20.0012 26.025 20.0857L25.7035 20.0915L21.8611 20.0901L18.0333 23.9193C17.7815 24.1707 17.4465 24.3216 17.0913 24.3437C16.7361 24.3658 16.3851 24.2575 16.1041 24.0392L15.9667 23.9179L12.1375 20.0901H8.16646L7.91215 20.0989C6.81398 20.1659 5.78278 20.6495 5.0289 21.4508C4.27502 22.2521 3.85527 23.3109 3.85527 24.4111C3.85527 25.5113 4.27502 26.5701 5.0289 27.3714C5.78278 28.1728 6.81398 28.6563 7.91215 28.7234L8.16646 28.7307H25.7692V25.8076C25.7692 24.5624 27.2103 23.912 28.1413 24.6632L28.2641 24.7743L32.6487 29.1589C32.9003 29.4106 33.0515 29.7454 33.0738 30.1006C33.0962 30.4558 32.9881 30.807 32.77 31.0882L32.6487 31.2255L28.2641 35.6102C27.3842 36.4915 25.9052 35.9317 25.778 34.7435L25.7692 34.5769V31.6538H8.16646L7.85223 31.6465C5.98936 31.5627 4.23056 30.7638 2.94193 29.4159C1.6533 28.068 0.934132 26.2751 0.934132 24.4104C0.934132 22.5456 1.6533 20.7527 2.94193 19.4049C4.23056 18.057 5.98936 17.2581 7.85223 17.1743L8.16646 17.1685L11.8788 17.167L15.9667 13.082C16.2184 12.8304 16.5532 12.6792 16.9084 12.6569C17.2636 12.6345 17.6147 12.7426 17.8959 12.9607L18.0333 13.082L22.1198 17.167H25.7049L25.9651 17.1612C27.0971 17.093 28.1603 16.5953 28.9378 15.7697C29.7152 14.9441 30.1481 13.8528 30.1481 12.7188C30.1481 11.5848 29.7152 10.4935 28.9378 9.66791C28.1603 8.84229 27.0971 8.3446 25.9651 8.27647L25.7049 8.26916H11.7589L7.80254 12.2255Z" fill="black"/>
</svg>