<svg width="38" height="39" viewBox="0 0 38 39" fill="none" xmlns="http://www.w3.org/2000/svg">
<path d="M8.55002 15.5417C9.57918 15.5417 10.5556 15.7264 11.4792 16.0959C12.4028 16.4653 13.2472 17.0063 14.0125 17.7188L29.1334 32.1667H30.0834C30.532 32.1667 30.9083 32.0147 31.2123 31.7107C31.5163 31.4067 31.6677 31.0309 31.6667 30.5834C31.6667 30.3723 31.6466 30.148 31.6065 29.9105C31.5664 29.673 31.4281 29.4355 31.1917 29.198L23.9479 21.9542L21.1375 13.4834L18.2084 14.1959C17.2056 14.4598 16.2952 14.275 15.4771 13.6417C14.659 13.0084 14.25 12.1771 14.25 11.148V7.82296L13.1417 7.26879L7.04585 15.423C7.01946 15.4493 7.00627 15.4689 7.00627 15.4815C7.00627 15.4942 6.99307 15.5143 6.96668 15.5417H8.55002ZM8.55002 18.7084H6.72918C6.80835 18.8931 6.90757 19.0646 7.02685 19.223C7.14613 19.3813 7.28441 19.5264 7.44168 19.6584L20.2667 31.3355C20.557 31.6257 20.8868 31.8368 21.2563 31.9688C21.6257 32.1007 22.0084 32.1667 22.4042 32.1667H24.5417L11.8354 20.0146C11.3868 19.566 10.8791 19.2362 10.3123 19.025C9.74543 18.8139 9.15802 18.7084 8.55002 18.7084ZM22.4042 35.3334C21.6125 35.3334 20.8604 35.1882 20.1479 34.898C19.4354 34.6077 18.7757 34.1987 18.1688 33.6709L5.30418 21.9938C4.09029 20.8855 3.41052 19.5264 3.26485 17.9167C3.11918 16.307 3.53507 14.8424 4.51252 13.523L10.6084 5.36879C11.057 4.76185 11.6576 4.35915 12.4102 4.16071C13.1628 3.96226 13.8816 4.04829 14.5667 4.41879L15.675 4.97296C16.2292 5.26324 16.6583 5.65907 16.9623 6.16046C17.2663 6.66185 17.4177 7.21601 17.4167 7.82296V11.148L20.3459 10.3959C21.1375 10.1848 21.9028 10.284 22.6417 10.6935C23.3806 11.1031 23.882 11.69 24.1459 12.4542L26.7188 20.2125L33.4479 26.9417C33.9757 27.4695 34.3388 28.0368 34.5373 28.6438C34.7357 29.2507 34.8344 29.8973 34.8334 30.5834C34.8334 31.9028 34.3715 33.0243 33.4479 33.948C32.5243 34.8716 31.4028 35.3334 30.0834 35.3334H22.4042Z" fill="black"/>
</svg>