<svg width="30" height="33" viewBox="0 0 30 33" fill="none" xmlns="http://www.w3.org/2000/svg">
<path d="M3.12502 9.37492H22.125C25.1112 9.37492 26.6027 9.37492 27.5305 10.3028C28.4584 11.2306 28.4584 12.7221 28.4584 15.7083V17.2916M22.125 14.1249H3.12502M22.125 18.8749H3.12502M22.125 23.6249H3.12502M20.5417 28.3749H4.70835C3.8685 28.3749 3.06305 28.7085 2.46918 29.3024C1.87532 29.8963 1.54169 30.7017 1.54169 31.5416H23.7084C23.7084 30.7017 23.3747 29.8963 22.7809 29.3024C22.187 28.7085 21.3815 28.3749 20.5417 28.3749ZM4.70835 4.62492H20.5417C21.3815 4.62492 22.187 4.29129 22.7809 3.69742C23.3747 3.10356 23.7084 2.2981 23.7084 1.45825H1.54169C1.54169 2.2981 1.87532 3.10356 2.46918 3.69742C3.06305 4.29129 3.8685 4.62492 4.70835 4.62492Z" stroke="black" stroke-width="2.375" stroke-linecap="round" stroke-linejoin="round"/>
</svg>